<svg width="2000" height="2000" viewBox="0 0 2000 2000" fill="none" xmlns="http://www.w3.org/2000/svg">
<rect width="2000" height="2000" fill="#13142A"/>
<path d="M620.343 560.437C682.864 560.437 733.392 579.115 771.927 616.47L718.253 679.581C690.728 657.561 661.434 646.551 630.37 646.551C615.821 646.551 604.811 649.107 597.34 654.219C589.869 659.331 586.133 666.605 586.133 676.042C586.133 683.12 588.1 689.018 592.032 693.737C596.357 698.062 603.238 702.191 612.675 706.123C622.506 710.055 638.234 715.56 659.861 722.638C703.114 736.4 734.178 753.702 753.053 774.542C772.32 795.382 781.954 823.89 781.954 860.066C781.954 886.411 774.876 909.807 760.72 930.255C746.958 950.308 727.1 966.037 701.148 977.44C675.196 988.843 644.526 994.545 609.136 994.545C572.961 994.545 541.111 988.843 513.586 977.44C486.061 966.037 462.861 951.095 443.987 932.614L503.559 867.144C534.622 893.882 568.242 907.252 604.418 907.252C621.326 907.252 634.105 903.909 642.756 897.225C651.407 890.147 655.732 881.103 655.732 870.093C655.732 861.835 653.766 854.954 649.834 849.449C646.295 843.944 639.807 838.832 630.37 834.114C620.933 829.395 607.17 824.284 589.083 818.779C541.504 803.836 508.277 785.945 489.403 765.105C470.529 743.871 461.092 717.526 461.092 686.069C461.092 660.51 467.973 638.294 481.735 619.419C495.498 600.545 514.372 585.996 538.358 575.773C562.737 565.549 590.066 560.437 620.343 560.437ZM1186.19 572.234L1055.25 831.165V982.749H933.749V831.755L802.809 572.234H935.519L996.27 739.743L1057.61 572.234H1186.19ZM1374.69 560.437C1437.21 560.437 1487.74 579.115 1526.27 616.47L1472.6 679.581C1445.08 657.561 1415.78 646.551 1384.72 646.551C1370.17 646.551 1359.16 649.107 1351.69 654.219C1344.22 659.331 1340.48 666.605 1340.48 676.042C1340.48 683.12 1342.45 689.018 1346.38 693.737C1350.7 698.062 1357.59 702.191 1367.02 706.123C1376.85 710.055 1392.58 715.56 1414.21 722.638C1457.46 736.4 1488.53 753.702 1507.4 774.542C1526.67 795.382 1536.3 823.89 1536.3 860.066C1536.3 886.411 1529.22 909.807 1515.07 930.255C1501.31 950.308 1481.45 966.037 1455.5 977.44C1429.54 988.843 1398.87 994.545 1363.48 994.545C1327.31 994.545 1295.46 988.843 1267.93 977.44C1240.41 966.037 1217.21 951.095 1198.33 932.614L1257.91 867.144C1288.97 893.882 1322.59 907.252 1358.77 907.252C1375.67 907.252 1388.45 903.909 1397.1 897.225C1405.75 890.147 1410.08 881.103 1410.08 870.093C1410.08 861.835 1408.11 854.954 1404.18 849.449C1400.64 843.944 1394.15 838.832 1384.72 834.114C1375.28 829.395 1361.52 824.284 1343.43 818.779C1295.85 803.836 1262.62 785.945 1243.75 765.105C1224.88 743.871 1215.44 717.526 1215.44 686.069C1215.44 660.51 1222.32 638.294 1236.08 619.419C1249.85 600.545 1268.72 585.996 1292.71 575.773C1317.08 565.549 1344.41 560.437 1374.69 560.437ZM600.879 1067.23C666.939 1067.23 719.826 1081.98 759.541 1111.47C799.255 1140.57 819.112 1193.65 819.112 1270.72C819.112 1346.61 800.042 1400.09 761.9 1431.15C723.758 1462.22 672.444 1477.75 607.957 1477.75H469.349V1067.23H600.879ZM590.852 1152.76V1392.22H615.035C633.909 1392.22 649.048 1388.49 660.451 1381.02C671.854 1373.55 680.308 1361.16 685.813 1343.86C691.318 1326.16 694.071 1301.79 694.071 1270.72C694.071 1240.05 691.121 1216.26 685.223 1199.35C679.718 1182.05 671.264 1170.06 659.861 1163.37C648.458 1156.3 633.712 1152.76 615.624 1152.76H590.852ZM1158.41 1067.23L1146.02 1151.58H1010.36V1228.25H1129.51V1310.24H1010.36V1392.81H1155.46V1477.75H888.859V1067.23H1158.41ZM1558.62 1067.23L1454.81 1477.75H1297.92L1187.62 1067.23H1315.61L1378.13 1393.4L1434.17 1067.23H1558.62Z" fill="white"/>
<path d="M602.244 556.622C605.539 564.994 607.597 573.802 608.354 582.768C608.414 583.415 608.462 584.032 608.5 584.67L592.376 605.119L589.067 609.329L551.078 657.598L548.065 661.481L531.688 682.276L529.232 682.675C511.914 685.235 494.226 682.86 478.198 675.82C462.169 668.781 448.452 657.363 438.621 642.879C428.79 628.394 423.244 611.43 422.62 593.935C421.996 576.441 426.319 559.125 435.093 543.977C443.867 528.828 456.736 516.462 472.222 508.299C487.708 500.135 505.182 496.505 522.638 497.826C540.094 499.146 556.823 505.364 570.905 515.764C584.986 526.165 595.848 540.326 602.244 556.622Z" fill="white" stroke="black" stroke-width="2.46488" stroke-miterlimit="10"/>
<path d="M575.689 567.041C577.87 572.613 579.278 578.457 579.874 584.411C580.586 591.841 580.003 599.338 578.153 606.569L545.814 647.642C543.662 648.777 541.45 649.792 539.187 650.684C527.306 655.346 514.309 656.38 501.841 653.655C489.372 650.93 477.991 644.569 469.138 635.377C460.284 626.184 454.355 614.572 452.101 602.01C449.846 589.448 451.368 576.499 456.473 564.801C461.578 553.104 470.036 543.183 480.78 536.293C491.523 529.402 504.068 525.853 516.829 526.093C529.59 526.332 541.993 530.351 552.47 537.64C562.947 544.928 571.027 555.16 575.689 567.041Z" fill="#FAC302" stroke="black" stroke-width="2.46488" stroke-miterlimit="10"/>
<path d="M497.157 573.212C501.694 584.777 503.039 595.087 500.148 596.222C497.257 597.356 491.234 588.934 486.678 577.323C482.123 565.713 480.805 555.427 483.696 554.292C486.587 553.158 492.613 561.632 497.157 573.212Z" fill="black"/>
<path d="M526.191 561.82C530.729 573.384 532.058 583.701 529.167 584.836C526.276 585.97 520.268 577.542 515.712 565.931C511.157 554.321 509.824 544.041 512.715 542.906C515.606 541.772 521.647 550.24 526.191 561.82Z" fill="black"/>
<path d="M476.094 618.105C475.391 618.392 474.665 618.618 473.923 618.78C473.789 618.809 473.651 618.811 473.516 618.787C473.381 618.762 473.253 618.711 473.138 618.636C473.023 618.561 472.925 618.464 472.848 618.351C472.771 618.237 472.717 618.11 472.689 617.976C472.635 617.705 472.688 617.423 472.837 617.19C472.986 616.957 473.219 616.791 473.488 616.727C473.962 616.629 484.862 614.223 482.596 602.915C482.569 602.78 482.569 602.642 482.595 602.508C482.621 602.373 482.674 602.245 482.749 602.131C482.825 602.017 482.922 601.919 483.036 601.843C483.15 601.766 483.277 601.713 483.411 601.686C483.546 601.659 483.684 601.658 483.818 601.684C483.953 601.711 484.081 601.763 484.195 601.839C484.309 601.915 484.407 602.012 484.483 602.126C484.56 602.239 484.613 602.367 484.64 602.501C486.087 609.471 483.057 613.537 480.269 615.743C478.996 616.724 477.591 617.52 476.094 618.105Z" fill="black"/>
<path d="M560.076 585.153C558.576 585.744 557 586.119 555.394 586.266C551.865 586.539 546.878 585.618 543.184 579.531C543.039 579.292 542.995 579.007 543.06 578.736C543.126 578.465 543.297 578.232 543.535 578.087C543.773 577.942 544.059 577.898 544.33 577.963C544.6 578.029 544.834 578.2 544.979 578.438C550.947 588.294 560.636 582.621 561.034 582.376C561.277 582.24 561.563 582.201 561.833 582.27C562.103 582.338 562.336 582.507 562.485 582.743C562.556 582.86 562.603 582.99 562.624 583.125C562.644 583.261 562.638 583.399 562.604 583.532C562.571 583.665 562.512 583.79 562.43 583.9C562.348 584.01 562.245 584.102 562.127 584.172C561.473 584.556 560.786 584.884 560.076 585.153Z" fill="black"/>
<path d="M532.391 632.15C497.208 645.955 480.9 613.66 480.731 613.32C480.609 613.068 480.592 612.778 480.684 612.514C480.775 612.25 480.968 612.032 481.22 611.91C481.471 611.788 481.761 611.771 482.026 611.863C482.29 611.954 482.507 612.147 482.629 612.399C483.253 613.672 498.293 643.322 531.641 630.238C544.261 625.286 551.446 616.289 552.934 603.525C553.611 597.451 553.094 591.303 551.411 585.428C551.369 585.297 551.352 585.158 551.364 585.02C551.375 584.882 551.413 584.747 551.476 584.624C551.539 584.501 551.626 584.391 551.732 584.302C551.837 584.212 551.96 584.144 552.091 584.102C552.358 584.021 552.645 584.046 552.893 584.173C553.14 584.3 553.329 584.519 553.417 584.782C553.519 585.131 564.378 619.599 532.391 632.15Z" fill="black"/>
<path d="M441.332 608.281C441.381 608.535 441.332 608.77 441.186 608.986C441.04 609.203 440.84 609.336 440.587 609.386C440.334 609.435 440.098 609.387 439.882 609.24C439.665 609.094 439.532 608.895 439.482 608.641C439.433 608.388 439.481 608.153 439.628 607.936C439.774 607.719 439.974 607.586 440.227 607.537C440.395 607.504 440.557 607.517 440.714 607.575C440.871 607.63 441.005 607.719 441.118 607.843C441.227 607.964 441.298 608.11 441.332 608.281Z" fill="black"/>
<path d="M494.565 515.314C494.309 515.354 494.075 515.296 493.863 515.141C493.651 514.986 493.525 514.781 493.485 514.525C493.446 514.269 493.503 514.035 493.658 513.823C493.813 513.611 494.019 513.486 494.275 513.446C494.531 513.406 494.765 513.464 494.976 513.619C495.188 513.773 495.314 513.979 495.354 514.235C495.38 514.405 495.361 514.567 495.297 514.722C495.236 514.877 495.141 515.009 495.012 515.117C494.887 515.222 494.738 515.287 494.565 515.314Z" fill="black"/>
<path d="M590.639 571.373C590.383 571.412 590.149 571.355 589.937 571.2C589.725 571.045 589.599 570.84 589.56 570.584C589.52 570.328 589.578 570.094 589.732 569.882C589.887 569.67 590.093 569.544 590.349 569.504C590.605 569.465 590.839 569.522 591.051 569.677C591.262 569.832 591.388 570.038 591.428 570.294C591.454 570.463 591.435 570.625 591.371 570.781C591.31 570.935 591.215 571.067 591.087 571.176C590.961 571.28 590.812 571.346 590.639 571.373Z" fill="black"/>
<path d="M515.5 508.545C515.414 508.016 515.141 507.614 514.681 507.34C514.22 507.065 513.665 506.942 513.014 506.97C512.539 506.991 512.126 507.085 511.775 507.255C511.429 507.424 511.161 507.647 510.974 507.925C510.789 508.203 510.705 508.513 510.719 508.856C510.732 509.143 510.81 509.387 510.956 509.587C511.104 509.784 511.29 509.946 511.513 510.073C511.735 510.197 511.968 510.297 512.209 510.374C512.451 510.448 512.672 510.507 512.874 510.551L513.978 510.798C514.261 510.859 514.577 510.947 514.925 511.062C515.277 511.176 515.615 511.339 515.939 511.549C516.267 511.756 516.542 512.028 516.763 512.365C516.984 512.703 517.106 513.123 517.128 513.627C517.153 514.208 517.023 514.739 516.739 515.221C516.458 515.702 516.033 516.094 515.465 516.395C514.899 516.696 514.204 516.865 513.378 516.9C512.609 516.933 511.937 516.838 511.363 516.614C510.793 516.389 510.337 516.062 509.996 515.632C509.659 515.201 509.457 514.693 509.389 514.107L510.732 514.049C510.785 514.453 510.936 514.783 511.185 515.039C511.438 515.291 511.751 515.474 512.123 515.587C512.5 515.697 512.901 515.743 513.328 515.725C513.825 515.703 514.267 515.604 514.655 515.426C515.044 515.244 515.347 515.004 515.565 514.703C515.784 514.4 515.884 514.052 515.867 513.66C515.852 513.303 515.74 513.017 515.531 512.802C515.322 512.587 515.052 512.416 514.72 512.29C514.389 512.164 514.032 512.057 513.65 511.968L512.311 511.647C511.461 511.442 510.782 511.126 510.273 510.699C509.764 510.273 509.494 509.697 509.463 508.973C509.437 508.372 509.577 507.84 509.883 507.378C510.192 506.913 510.618 506.544 511.16 506.272C511.705 505.996 512.321 505.843 513.007 505.814C513.699 505.784 514.32 505.882 514.87 506.107C515.419 506.329 515.86 506.646 516.193 507.059C516.53 507.472 516.719 507.95 516.759 508.491L515.5 508.545Z" fill="black"/>
<path d="M576.847 540.717L576.007 541.51L572.777 538.087L573.617 537.294L576.847 540.717Z" fill="black"/>
<path d="M543.905 523.1C543.175 522.833 542.604 522.441 542.193 521.925C541.786 521.407 541.546 520.805 541.473 520.118C541.405 519.429 541.513 518.697 541.797 517.921C542.081 517.145 542.473 516.513 542.973 516.025C543.477 515.535 544.044 515.217 544.675 515.071C545.311 514.924 545.971 514.975 546.655 515.226C547.049 515.37 547.415 515.579 547.751 515.851C548.088 516.124 548.36 516.466 548.567 516.877C548.775 517.285 548.885 517.765 548.895 518.317C548.905 518.869 548.781 519.499 548.522 520.205L548.342 520.699L542.503 518.56L542.871 517.554L547.527 519.259C547.683 518.832 547.737 518.419 547.689 518.021C547.644 517.624 547.501 517.272 547.26 516.963C547.022 516.656 546.693 516.425 546.272 516.271C545.808 516.102 545.365 516.07 544.942 516.176C544.524 516.28 544.157 516.481 543.843 516.78C543.528 517.079 543.294 517.437 543.142 517.854L542.896 518.525C542.686 519.097 542.607 519.618 542.659 520.088C542.715 520.556 542.883 520.959 543.162 521.296C543.442 521.63 543.817 521.883 544.288 522.055C544.593 522.167 544.885 522.225 545.163 522.23C545.445 522.233 545.709 522.18 545.954 522.072C546.199 521.961 546.42 521.792 546.615 521.565L547.624 522.292C547.366 522.63 547.044 522.893 546.658 523.08C546.274 523.264 545.847 523.361 545.377 523.371C544.908 523.379 544.418 523.288 543.905 523.1Z" fill="black"/>
<path d="M518.699 519.492C518.49 519.474 518.305 519.441 518.144 519.392C517.983 519.346 517.872 519.305 517.812 519.268L518.219 518.207C518.512 518.309 518.775 518.36 519.007 518.358C519.239 518.357 519.452 518.272 519.646 518.102C519.842 517.936 520.033 517.655 520.218 517.26L520.502 516.652L518.219 508.318L519.559 508.433L521.231 515.027L521.315 515.034L524.08 508.818L525.419 508.933L521.222 517.852C521.033 518.254 520.813 518.581 520.563 518.834C520.313 519.09 520.032 519.272 519.721 519.379C519.413 519.486 519.073 519.524 518.699 519.492Z" fill="black"/>
<path d="M530.61 513.078L529.455 513.184C529.42 512.989 529.352 512.792 529.249 512.595C529.151 512.395 528.998 512.217 528.792 512.061C528.585 511.905 528.305 511.793 527.949 511.728C527.463 511.637 527.037 511.674 526.672 511.838C526.31 511.999 526.097 512.25 526.034 512.592C525.978 512.895 526.043 513.155 526.231 513.372C526.419 513.589 526.737 513.8 527.184 514.004L528.31 514.513C528.988 514.817 529.468 515.179 529.751 515.599C530.034 516.015 530.124 516.501 530.02 517.056C529.936 517.511 529.729 517.894 529.401 518.204C529.075 518.515 528.661 518.73 528.157 518.85C527.653 518.971 527.092 518.974 526.475 518.859C525.665 518.709 525.027 518.408 524.561 517.958C524.095 517.508 523.855 516.931 523.839 516.229L525.051 516.155C525.082 516.603 525.231 516.962 525.498 517.233C525.769 517.504 526.154 517.687 526.654 517.779C527.223 517.885 527.697 517.848 528.077 517.669C528.46 517.487 528.683 517.225 528.747 516.884C528.798 516.608 528.744 516.359 528.586 516.137C528.428 515.912 528.158 515.715 527.775 515.548L526.509 514.991C525.813 514.684 525.328 514.317 525.054 513.892C524.784 513.464 524.7 512.975 524.802 512.427C524.885 511.979 525.084 511.606 525.4 511.308C525.719 511.01 526.116 510.804 526.591 510.689C527.069 510.574 527.587 510.569 528.145 510.672C528.932 510.818 529.517 511.105 529.901 511.534C530.289 511.962 530.525 512.477 530.61 513.078Z" fill="black"/>
<path d="M535.18 519.39L531.97 518.546L534.704 508.143L538.056 509.024C539.066 509.29 539.874 509.725 540.483 510.33C541.092 510.932 541.486 511.671 541.665 512.547C541.845 513.419 541.793 514.394 541.51 515.471C541.225 516.555 540.787 517.437 540.195 518.118C539.605 518.795 538.885 519.247 538.036 519.472C537.189 519.695 536.237 519.667 535.18 519.39ZM533.523 517.759L535.392 518.251C536.253 518.477 537.009 518.498 537.662 518.315C538.314 518.132 538.86 517.77 539.299 517.23C539.738 516.69 540.068 515.997 540.291 515.151C540.512 514.311 540.564 513.552 540.45 512.874C540.335 512.192 540.049 511.617 539.589 511.149C539.13 510.677 538.494 510.334 537.681 510.121L535.67 509.592L533.523 517.759Z" fill="black"/>
<path d="M556.109 519.916L549.899 525.867L548.765 525.316L549.609 516.757L550.819 517.345L550.011 524.1L550.086 524.136L554.899 519.329L556.109 519.916Z" fill="black"/>
<path d="M558.459 521.616L558.99 520.835C559.152 520.597 559.365 520.374 559.63 520.165C559.9 519.954 560.201 519.78 560.532 519.641C560.868 519.501 561.215 519.417 561.573 519.39L561.822 520.219C561.462 520.356 561.118 520.52 560.789 520.711C560.465 520.901 560.194 521.157 559.975 521.479L559.432 522.278L558.459 521.616Z" fill="black"/>
<path d="M556.998 528.97L557.606 528.244L562.836 527.544C563.449 527.463 563.968 527.38 564.391 527.295C564.817 527.208 565.176 527.091 565.467 526.946C565.763 526.801 566.017 526.601 566.229 526.348C566.472 526.058 566.613 525.748 566.651 525.418C566.692 525.091 566.641 524.769 566.499 524.452C566.357 524.136 566.136 523.853 565.837 523.603C565.52 523.337 565.188 523.17 564.841 523.104C564.498 523.037 564.165 523.066 563.839 523.192C563.517 523.32 563.224 523.541 562.96 523.856L562.008 523.058C562.413 522.574 562.881 522.242 563.411 522.064C563.941 521.885 564.484 521.855 565.04 521.973C565.599 522.093 566.119 522.355 566.6 522.758C567.084 523.164 567.428 523.626 567.63 524.144C567.833 524.661 567.895 525.183 567.817 525.708C567.738 526.233 567.521 526.708 567.165 527.133C566.91 527.437 566.606 527.688 566.252 527.886C565.903 528.084 565.446 528.247 564.879 528.377C564.317 528.506 563.587 528.627 562.687 528.738L559.168 529.168L559.114 529.232L562.955 532.452L562.211 533.339L556.998 528.97Z" fill="black"/>
<path d="M563.926 534.648L564.582 533.964L569.846 533.616C570.463 533.575 570.986 533.527 571.414 533.471C571.845 533.412 572.21 533.32 572.51 533.195C572.815 533.069 573.082 532.888 573.31 532.65C573.573 532.376 573.734 532.076 573.794 531.75C573.857 531.426 573.828 531.101 573.707 530.776C573.586 530.451 573.385 530.154 573.104 529.884C572.805 529.598 572.484 529.409 572.142 529.32C571.805 529.23 571.471 529.237 571.138 529.341C570.807 529.447 570.5 529.648 570.216 529.945L569.319 529.085C569.756 528.629 570.245 528.33 570.786 528.187C571.326 528.044 571.87 528.05 572.417 528.205C572.966 528.362 573.468 528.658 573.921 529.093C574.377 529.53 574.688 530.014 574.856 530.544C575.023 531.074 575.05 531.598 574.937 532.117C574.824 532.635 574.575 533.095 574.192 533.495C573.917 533.781 573.597 534.011 573.231 534.185C572.87 534.359 572.402 534.492 571.828 534.583C571.259 534.674 570.522 534.746 569.618 534.797L566.077 534.99L566.019 535.051L569.636 538.519L568.834 539.355L563.926 534.648Z" fill="black"/>
<path d="M579.336 540.383L580.11 539.84C580.345 539.675 580.623 539.541 580.945 539.44C581.272 539.339 581.615 539.282 581.974 539.269C582.338 539.258 582.693 539.302 583.037 539.403L582.976 540.267C582.591 540.267 582.211 540.299 581.836 540.361C581.465 540.424 581.121 540.568 580.803 540.791L580.012 541.346L579.336 540.383Z" fill="black"/>
<path d="M574.501 546.787L575.334 546.349L580.407 547.675C581.002 547.831 581.51 547.95 581.931 548.031C582.356 548.111 582.729 548.139 583.051 548.115C583.379 548.093 583.687 548.005 583.977 547.853C584.311 547.677 584.557 547.445 584.716 547.156C584.877 546.871 584.952 546.555 584.94 546.211C584.928 545.866 584.832 545.523 584.651 545.18C584.46 544.816 584.217 544.538 583.923 544.346C583.633 544.156 583.315 544.057 582.969 544.05C582.624 544.046 582.271 544.14 581.91 544.33L581.335 543.237C581.89 542.945 582.445 542.816 583 542.851C583.554 542.887 584.065 543.063 584.532 543.381C585 543.702 585.38 544.139 585.671 544.691C585.963 545.246 586.105 545.8 586.096 546.353C586.088 546.905 585.948 547.408 585.679 547.862C585.409 548.315 585.03 548.67 584.543 548.927C584.194 549.11 583.82 549.226 583.42 549.275C583.024 549.326 582.542 549.304 581.972 549.21C581.407 549.117 580.69 548.953 579.821 548.717L576.422 547.786L576.348 547.825L578.668 552.232L577.65 552.768L574.501 546.787Z" fill="black"/>
<path d="M574.501 546.787L573.999 545.834L573.046 546.336L573.548 547.289L574.501 546.787ZM575.334 546.349L575.607 545.306L575.202 545.201L574.832 545.395L575.334 546.349ZM580.407 547.675L580.681 546.632L580.68 546.632L580.407 547.675ZM581.931 548.031L581.726 549.089L581.731 549.09L581.931 548.031ZM583.051 548.115L582.978 547.04L582.972 547.041L583.051 548.115ZM584.716 547.156L583.777 546.627L583.773 546.636L584.716 547.156ZM584.94 546.211L586.017 546.174L586.017 546.174L584.94 546.211ZM583.923 544.346L583.33 545.246L583.334 545.248L583.923 544.346ZM582.969 544.05L582.99 542.973L582.98 542.973L582.969 544.05ZM581.91 544.33L580.956 544.832L581.458 545.785L582.412 545.283L581.91 544.33ZM581.335 543.237L580.833 542.284L579.879 542.786L580.381 543.739L581.335 543.237ZM583 542.851L582.932 543.927L582.932 543.927L583 542.851ZM584.532 543.381L585.141 542.492L585.138 542.49L584.532 543.381ZM586.096 546.353L587.174 546.37L587.174 546.37L586.096 546.353ZM585.679 547.862L584.753 547.311L585.679 547.862ZM583.42 549.275L583.289 548.206L583.283 548.207L583.42 549.275ZM581.972 549.21L582.148 548.147L582.147 548.146L581.972 549.21ZM579.821 548.717L579.536 549.756L579.538 549.756L579.821 548.717ZM576.422 547.786L576.707 546.747L576.297 546.635L575.92 546.833L576.422 547.786ZM576.348 547.825L575.846 546.872L574.893 547.374L575.395 548.327L576.348 547.825ZM578.668 552.232L579.17 553.185L580.123 552.684L579.622 551.73L578.668 552.232ZM577.65 552.768L576.696 553.27L577.198 554.224L578.152 553.722L577.65 552.768ZM575.003 547.741L575.836 547.302L574.832 545.395L573.999 545.834L575.003 547.741ZM575.062 547.391L580.135 548.717L580.68 546.632L575.607 545.306L575.062 547.391ZM580.134 548.717C580.742 548.877 581.274 549.001 581.726 549.089L582.136 546.973C581.745 546.898 581.261 546.785 580.681 546.632L580.134 548.717ZM581.731 549.09C582.219 549.182 582.69 549.223 583.131 549.19L582.972 547.041C582.768 547.056 582.492 547.04 582.131 546.972L581.731 549.09ZM583.125 549.19C583.602 549.158 584.056 549.029 584.479 548.806L583.475 546.899C583.318 546.982 583.155 547.028 582.978 547.04L583.125 549.19ZM584.479 548.806C584.972 548.547 585.385 548.175 585.66 547.677L583.773 546.636C583.729 546.715 583.65 546.808 583.475 546.899L584.479 548.806ZM585.655 547.685C585.918 547.218 586.035 546.705 586.017 546.174L583.863 546.248C583.868 546.405 583.836 546.523 583.777 546.627L585.655 547.685ZM586.017 546.174C585.998 545.648 585.851 545.147 585.605 544.678L583.698 545.682C583.812 545.899 583.857 546.085 583.863 546.248L586.017 546.174ZM585.605 544.678C585.342 544.18 584.984 543.752 584.511 543.444L583.334 545.248C583.45 545.324 583.577 545.452 583.698 545.682L585.605 544.678ZM584.515 543.446C584.056 543.144 583.54 542.984 582.99 542.973L582.948 545.127C583.091 545.13 583.211 545.167 583.33 545.246L584.515 543.446ZM582.98 542.973C582.427 542.967 581.898 543.118 581.408 543.376L582.412 545.283C582.644 545.161 582.821 545.126 582.957 545.128L582.98 542.973ZM582.863 543.828L582.288 542.735L580.381 543.739L580.956 544.832L582.863 543.828ZM581.837 544.191C582.24 543.978 582.599 543.906 582.932 543.927L583.068 541.776C582.291 541.727 581.54 541.911 580.833 542.284L581.837 544.191ZM582.932 543.927C583.29 543.949 583.615 544.061 583.926 544.272L585.138 542.49C584.515 542.066 583.819 541.824 583.068 541.776L582.932 543.927ZM583.923 544.27C584.233 544.482 584.5 544.78 584.717 545.193L586.624 544.189C586.26 543.497 585.768 542.922 585.141 542.492L583.923 544.27ZM584.717 545.193C584.937 545.611 585.025 545.987 585.019 546.336L587.174 546.37C587.186 545.613 586.989 544.882 586.624 544.189L584.717 545.193ZM585.019 546.336C585.013 546.709 584.922 547.027 584.753 547.311L586.605 548.413C586.975 547.79 587.162 547.101 587.174 546.37L585.019 546.336ZM584.753 547.311C584.589 547.585 584.361 547.805 584.041 547.973L585.045 549.88C585.7 549.535 586.229 549.044 586.605 548.413L584.753 547.311ZM584.041 547.973C583.81 548.095 583.562 548.172 583.289 548.206L583.551 550.345C584.077 550.28 584.578 550.126 585.045 549.88L584.041 547.973ZM583.283 548.207C583.027 548.239 582.656 548.231 582.148 548.147L581.796 550.273C582.427 550.377 583.022 550.412 583.556 550.344L583.283 548.207ZM582.147 548.146C581.632 548.062 580.954 547.908 580.103 547.677L579.538 549.756C580.425 549.997 581.182 550.172 581.798 550.273L582.147 548.146ZM580.105 547.677L576.707 546.747L576.138 548.825L579.536 549.756L580.105 547.677ZM575.92 546.833L575.846 546.872L576.85 548.779L576.924 548.74L575.92 546.833ZM575.395 548.327L577.715 552.734L579.622 551.73L577.302 547.323L575.395 548.327ZM578.166 551.279L577.148 551.815L578.152 553.722L579.17 553.185L578.166 551.279ZM578.603 552.266L575.455 546.285L573.548 547.289L576.696 553.27L578.603 552.266Z" fill="black"/>
<path d="M580.038 558.486C579.79 557.838 579.681 557.218 579.71 556.626C579.74 556.038 579.896 555.519 580.178 555.07C580.465 554.623 580.866 554.286 581.383 554.059L581.855 555.295C581.541 555.445 581.304 555.663 581.143 555.949C580.986 556.234 580.904 556.56 580.898 556.926C580.892 557.292 580.962 557.668 581.109 558.054C581.274 558.485 581.496 558.839 581.774 559.116C582.052 559.392 582.361 559.573 582.701 559.661C583.042 559.748 583.389 559.724 583.742 559.589C584.112 559.448 584.402 559.232 584.614 558.942C584.828 558.65 584.948 558.297 584.974 557.882C584.999 557.468 584.914 557.005 584.719 556.495L584.412 555.69L585.491 555.278L585.799 556.083C585.951 556.482 586.157 556.804 586.416 557.05C586.676 557.3 586.969 557.459 587.296 557.529C587.624 557.603 587.964 557.572 588.317 557.437C588.658 557.307 588.925 557.119 589.119 556.872C589.314 556.626 589.429 556.338 589.464 556.01C589.501 555.684 589.449 555.337 589.308 554.967C589.176 554.621 588.987 554.318 588.742 554.059C588.501 553.802 588.225 553.623 587.913 553.521C587.603 553.418 587.279 553.422 586.939 553.534L586.489 552.356C587.023 552.175 587.545 552.157 588.054 552.303C588.567 552.449 589.027 552.719 589.433 553.115C589.84 553.514 590.154 554.003 590.375 554.582C590.613 555.204 590.69 555.785 590.608 556.326C590.53 556.866 590.332 557.333 590.014 557.728C589.696 558.123 589.3 558.411 588.826 558.592C588.26 558.808 587.721 558.844 587.208 558.698C586.697 558.556 586.267 558.261 585.92 557.813L585.841 557.843C585.979 558.518 585.898 559.116 585.6 559.639C585.304 560.16 584.837 560.543 584.2 560.786C583.653 560.995 583.106 561.034 582.557 560.902C582.013 560.773 581.519 560.5 581.076 560.085C580.632 559.67 580.286 559.136 580.038 558.486Z" fill="black"/>
<path d="M435.473 592.706C434.95 592.823 434.565 593.119 434.318 593.595C434.071 594.071 433.98 594.632 434.046 595.28C434.095 595.754 434.214 596.161 434.403 596.5C434.593 596.836 434.831 597.09 435.12 597.261C435.408 597.429 435.723 597.495 436.064 597.46C436.35 597.431 436.588 597.338 436.78 597.181C436.968 597.021 437.118 596.827 437.232 596.597C437.343 596.367 437.429 596.13 437.492 595.884C437.552 595.639 437.597 595.414 437.629 595.21L437.811 594.093C437.856 593.807 437.925 593.487 438.019 593.133C438.113 592.775 438.255 592.427 438.446 592.091C438.633 591.752 438.888 591.462 439.212 591.221C439.536 590.98 439.949 590.834 440.45 590.783C441.029 590.724 441.566 590.822 442.064 591.078C442.561 591.33 442.977 591.731 443.311 592.281C443.645 592.827 443.854 593.512 443.938 594.334C444.016 595.1 443.96 595.776 443.77 596.362C443.58 596.945 443.28 597.419 442.87 597.784C442.46 598.147 441.965 598.378 441.384 598.48L441.247 597.142C441.648 597.066 441.968 596.896 442.209 596.632C442.446 596.365 442.61 596.043 442.701 595.664C442.789 595.282 442.811 594.878 442.768 594.453C442.717 593.959 442.592 593.523 442.391 593.145C442.188 592.769 441.929 592.48 441.617 592.28C441.301 592.08 440.948 591.999 440.557 592.039C440.202 592.076 439.923 592.204 439.721 592.426C439.518 592.647 439.363 592.927 439.257 593.265C439.151 593.603 439.065 593.965 438.999 594.352L438.757 595.707C438.602 596.568 438.326 597.265 437.93 597.798C437.534 598.331 436.976 598.634 436.255 598.708C435.656 598.769 435.117 598.66 434.638 598.382C434.155 598.101 433.762 597.697 433.458 597.172C433.151 596.644 432.962 596.038 432.893 595.356C432.822 594.666 432.883 594.04 433.076 593.479C433.265 592.917 433.556 592.458 433.949 592.102C434.342 591.741 434.807 591.525 435.345 591.452L435.473 592.706Z" fill="black"/>
<path d="M463.988 529.577L464.829 530.369L461.602 533.794L460.761 533.002L463.988 529.577Z" fill="black"/>
<path d="M448.333 563.496C448.109 564.241 447.751 564.833 447.26 565.274C446.767 565.711 446.179 565.985 445.498 566.099C444.815 566.207 444.077 566.143 443.286 565.904C442.495 565.666 441.841 565.312 441.324 564.842C440.805 564.368 440.454 563.82 440.272 563.198C440.088 562.572 440.1 561.911 440.31 561.213C440.431 560.811 440.618 560.434 440.87 560.082C441.122 559.73 441.448 559.439 441.846 559.208C442.242 558.976 442.714 558.838 443.265 558.795C443.815 558.753 444.451 558.84 445.172 559.057L445.675 559.208L443.882 565.162L442.856 564.854L444.285 560.106C443.849 559.975 443.434 559.945 443.04 560.017C442.646 560.085 442.303 560.248 442.009 560.507C441.717 560.763 441.506 561.105 441.376 561.534C441.234 562.007 441.228 562.451 441.359 562.867C441.488 563.279 441.71 563.633 442.027 563.929C442.343 564.226 442.715 564.438 443.14 564.566L443.824 564.772C444.408 564.948 444.932 564.996 445.399 564.917C445.863 564.833 446.255 564.642 446.575 564.344C446.892 564.044 447.122 563.655 447.267 563.175C447.36 562.864 447.402 562.569 447.39 562.291C447.376 562.009 447.308 561.749 447.186 561.511C447.061 561.272 446.879 561.062 446.641 560.881L447.308 559.831C447.66 560.069 447.941 560.375 448.151 560.749C448.356 561.121 448.479 561.542 448.517 562.011C448.551 562.478 448.49 562.973 448.333 563.496Z" fill="black"/>
<path d="M446.21 588.869C446.205 589.079 446.182 589.265 446.143 589.429C446.107 589.593 446.073 589.705 446.039 589.768L444.956 589.424C445.041 589.125 445.076 588.86 445.061 588.628C445.046 588.396 444.948 588.189 444.767 588.006C444.59 587.819 444.299 587.645 443.893 587.483L443.269 587.236L435.084 590.004L435.12 588.66L441.605 586.604L441.607 586.52L435.24 584.124L435.275 582.78L444.425 586.447C444.837 586.612 445.177 586.812 445.444 587.046C445.715 587.281 445.912 587.551 446.037 587.855C446.163 588.156 446.22 588.494 446.21 588.869Z" fill="black"/>
<path d="M439.11 577.357L439.284 578.503C439.091 578.549 438.899 578.63 438.708 578.744C438.514 578.853 438.345 579.016 438.201 579.231C438.058 579.447 437.963 579.733 437.918 580.092C437.857 580.583 437.919 581.006 438.104 581.361C438.286 581.713 438.549 581.91 438.894 581.953C439.2 581.992 439.456 581.911 439.661 581.71C439.867 581.51 440.058 581.181 440.236 580.722L440.678 579.569C440.942 578.874 441.275 578.373 441.677 578.066C442.076 577.76 442.556 577.641 443.116 577.712C443.576 577.769 443.97 577.953 444.299 578.263C444.628 578.569 444.867 578.971 445.017 579.467C445.167 579.963 445.203 580.522 445.124 581.145C445.022 581.963 444.759 582.617 444.337 583.109C443.915 583.6 443.354 583.874 442.654 583.931L442.508 582.725C442.954 582.668 443.304 582.498 443.558 582.216C443.813 581.929 443.973 581.534 444.036 581.03C444.108 580.455 444.044 579.984 443.842 579.616C443.638 579.244 443.364 579.036 443.019 578.993C442.741 578.958 442.495 579.026 442.283 579.198C442.067 579.368 441.887 579.65 441.742 580.042L441.261 581.339C440.995 582.051 440.658 582.557 440.249 582.855C439.837 583.15 439.355 583.263 438.802 583.193C438.349 583.136 437.965 582.959 437.649 582.661C437.333 582.36 437.104 581.976 436.961 581.509C436.819 581.039 436.783 580.522 436.854 579.958C436.953 579.165 437.205 578.564 437.61 578.155C438.015 577.743 438.515 577.477 439.11 577.357Z" fill="black"/>
<path d="M445.142 572.424L444.488 575.678L433.943 573.559L434.626 570.161C434.831 569.138 435.218 568.305 435.787 567.662C436.352 567.019 437.066 566.582 437.93 566.352C438.791 566.121 439.767 566.116 440.859 566.335C441.957 566.556 442.863 566.941 443.578 567.492C444.289 568.042 444.782 568.734 445.057 569.568C445.329 570.401 445.357 571.353 445.142 572.424ZM443.612 574.173L443.993 572.279C444.168 571.407 444.145 570.65 443.924 570.009C443.702 569.369 443.309 568.845 442.745 568.439C442.18 568.032 441.468 567.743 440.61 567.571C439.759 567.4 438.998 567.391 438.328 567.546C437.654 567.7 437.097 568.02 436.656 568.506C436.212 568.992 435.908 569.647 435.742 570.471L435.332 572.51L443.612 574.173Z" fill="black"/>
<path d="M444.439 551.5L450.744 557.35L450.26 558.514L441.666 558.174L442.182 556.932L448.972 557.342L449.005 557.264L443.923 552.742L444.439 551.5Z" fill="black"/>
<path d="M446 549.055L445.189 548.57C444.942 548.423 444.707 548.224 444.482 547.971C444.256 547.714 444.065 547.424 443.907 547.101C443.747 546.774 443.643 546.433 443.595 546.077L444.408 545.78C444.566 546.131 444.749 546.465 444.96 546.782C445.169 547.095 445.44 547.35 445.774 547.55L446.603 548.045L446 549.055Z" fill="black"/>
<path d="M453.425 550.08L452.664 549.515L451.659 544.335C451.541 543.728 451.428 543.216 451.319 542.798C451.207 542.378 451.069 542.027 450.907 541.745C450.745 541.458 450.531 541.216 450.266 541.019C449.962 540.793 449.644 540.671 449.312 540.652C448.983 540.63 448.665 540.7 448.357 540.861C448.05 541.021 447.78 541.258 447.548 541.571C447.301 541.903 447.154 542.245 447.108 542.595C447.061 542.941 447.11 543.272 447.255 543.59C447.402 543.904 447.64 544.184 447.97 544.429L447.229 545.426C446.722 545.049 446.363 544.602 446.154 544.083C445.944 543.565 445.882 543.025 445.967 542.463C446.055 541.898 446.285 541.363 446.66 540.859C447.037 540.352 447.477 539.982 447.982 539.749C448.487 539.517 449.004 539.424 449.533 539.472C450.062 539.519 450.549 539.708 450.994 540.039C451.312 540.275 451.581 540.564 451.799 540.905C452.017 541.242 452.207 541.689 452.37 542.247C452.532 542.8 452.695 543.523 452.859 544.414L453.495 547.902L453.562 547.953L456.551 543.929L457.48 544.62L453.425 550.08Z" fill="black"/>
<path d="M458.686 542.834L457.965 542.219L457.308 536.985C457.232 536.371 457.153 535.852 457.072 535.428C456.988 535.001 456.875 534.642 456.732 534.35C456.589 534.052 456.391 533.797 456.14 533.583C455.852 533.337 455.543 533.194 455.214 533.153C454.887 533.109 454.564 533.157 454.247 533.297C453.93 533.437 453.644 533.655 453.392 533.952C453.123 534.267 452.954 534.598 452.885 534.944C452.815 535.286 452.842 535.62 452.965 535.946C453.09 536.27 453.309 536.564 453.622 536.831L452.816 537.776C452.335 537.367 452.008 536.896 451.833 536.365C451.659 535.834 451.633 535.291 451.756 534.736C451.88 534.178 452.146 533.66 452.554 533.182C452.963 532.701 453.428 532.362 453.947 532.164C454.467 531.965 454.989 531.907 455.513 531.99C456.037 532.073 456.51 532.294 456.932 532.653C457.234 532.911 457.483 533.217 457.678 533.572C457.873 533.922 458.032 534.381 458.157 534.949C458.282 535.512 458.396 536.243 458.501 537.143L458.901 540.666L458.965 540.72L462.216 536.906L463.097 537.657L458.686 542.834Z" fill="black"/>
<path d="M463.508 527.111L462.921 526.37C462.742 526.145 462.593 525.875 462.472 525.56C462.352 525.239 462.275 524.9 462.242 524.543C462.209 524.18 462.232 523.824 462.313 523.474L463.179 523.484C463.202 523.868 463.255 524.246 463.34 524.617C463.425 524.983 463.588 525.318 463.829 525.623L464.43 526.38L463.508 527.111Z" fill="black"/>
<path d="M470.182 531.562L469.695 530.756L470.721 525.614C470.842 525.011 470.931 524.497 470.988 524.072C471.043 523.643 471.049 523.269 471.006 522.948C470.964 522.623 470.859 522.32 470.689 522.04C470.495 521.717 470.248 521.485 469.951 521.343C469.656 521.199 469.337 521.143 468.994 521.175C468.651 521.207 468.313 521.323 467.982 521.523C467.63 521.736 467.366 521.995 467.192 522.3C467.019 522.6 466.939 522.923 466.952 523.27C466.969 523.614 467.083 523.961 467.294 524.31L466.237 524.949C465.912 524.411 465.751 523.865 465.754 523.309C465.757 522.753 465.903 522.233 466.193 521.748C466.486 521.262 466.899 520.857 467.434 520.535C467.971 520.21 468.516 520.036 469.068 520.012C469.62 519.988 470.13 520.098 470.598 520.341C471.067 520.583 471.443 520.94 471.728 521.412C471.932 521.75 472.07 522.116 472.142 522.513C472.216 522.904 472.222 523.387 472.162 523.962C472.102 524.531 471.98 525.257 471.796 526.138L471.066 529.586L471.11 529.657L475.373 527.083L475.968 528.068L470.182 531.562Z" fill="black"/>
<path d="M470.182 531.562L469.26 532.119L469.817 533.041L470.739 532.484L470.182 531.562ZM469.695 530.756L468.639 530.545L468.557 530.955L468.773 531.313L469.695 530.756ZM470.721 525.614L469.665 525.402L469.664 525.403L470.721 525.614ZM470.988 524.072L472.056 524.214L472.056 524.209L470.988 524.072ZM471.006 522.948L469.937 523.085L469.938 523.091L471.006 522.948ZM469.951 521.343L469.478 522.311L469.487 522.315L469.951 521.343ZM468.994 521.175L468.893 520.102L468.893 520.102L468.994 521.175ZM467.192 522.3L468.125 522.839L468.127 522.835L467.192 522.3ZM466.952 523.27L465.876 523.312L465.876 523.321L466.952 523.27ZM467.294 524.31L467.851 525.233L468.773 524.676L468.216 523.753L467.294 524.31ZM466.237 524.949L465.315 525.506L465.872 526.428L466.794 525.871L466.237 524.949ZM465.754 523.309L466.831 523.314L466.831 523.314L465.754 523.309ZM466.193 521.748L465.27 521.193L465.268 521.195L466.193 521.748ZM469.068 520.012L469.021 518.936L469.068 520.012ZM470.598 520.341L470.103 521.297L470.598 520.341ZM472.142 522.513L471.082 522.706L471.083 522.712L472.142 522.513ZM472.162 523.962L471.09 523.849L471.09 523.85L472.162 523.962ZM471.796 526.138L472.85 526.361L472.85 526.359L471.796 526.138ZM471.066 529.586L470.012 529.363L469.924 529.779L470.144 530.143L471.066 529.586ZM471.11 529.657L470.187 530.214L470.744 531.137L471.667 530.58L471.11 529.657ZM475.373 527.083L476.295 526.526L475.738 525.603L474.816 526.16L475.373 527.083ZM475.968 528.068L476.525 528.99L477.447 528.433L476.89 527.511L475.968 528.068ZM471.104 531.005L470.618 530.199L468.773 531.313L469.26 532.119L471.104 531.005ZM470.752 530.967L471.778 525.825L469.664 525.403L468.639 530.545L470.752 530.967ZM471.778 525.826C471.901 525.209 471.995 524.67 472.056 524.214L469.92 523.929C469.867 524.324 469.783 524.813 469.665 525.402L471.778 525.826ZM472.056 524.209C472.12 523.717 472.132 523.244 472.074 522.806L469.938 523.091C469.965 523.294 469.966 523.57 469.919 523.935L472.056 524.209ZM472.075 522.812C472.014 522.338 471.859 521.892 471.612 521.483L469.767 522.597C469.859 522.749 469.915 522.909 469.937 523.085L472.075 522.812ZM471.612 521.483C471.324 521.006 470.929 520.616 470.415 520.37L469.487 522.315C469.568 522.354 469.665 522.428 469.767 522.597L471.612 521.483ZM470.423 520.375C469.942 520.139 469.423 520.053 468.893 520.102L469.094 522.248C469.251 522.233 469.37 522.259 469.478 522.311L470.423 520.375ZM468.893 520.102C468.37 520.151 467.878 520.327 467.425 520.601L468.539 522.446C468.749 522.319 468.931 522.263 469.094 522.248L468.893 520.102ZM467.425 520.601C466.943 520.892 466.536 521.276 466.257 521.765L468.127 522.835C468.196 522.715 468.317 522.58 468.539 522.446L467.425 520.601ZM466.259 521.762C465.984 522.238 465.854 522.762 465.876 523.312L468.029 523.227C468.024 523.084 468.054 522.963 468.125 522.839L466.259 521.762ZM465.876 523.321C465.903 523.875 466.085 524.393 466.371 524.867L468.216 523.753C468.081 523.529 468.035 523.354 468.029 523.218L465.876 523.321ZM466.737 523.388L465.68 524.026L466.794 525.871L467.851 525.233L466.737 523.388ZM467.159 524.392C466.923 524.001 466.83 523.647 466.831 523.314L464.676 523.304C464.673 524.082 464.901 524.821 465.315 525.506L467.159 524.392ZM466.831 523.314C466.833 522.955 466.925 522.623 467.117 522.301L465.268 521.195C464.881 521.843 464.68 522.552 464.676 523.304L466.831 523.314ZM467.116 522.304C467.31 521.982 467.591 521.698 467.991 521.457L466.877 519.612C466.207 520.016 465.662 520.542 465.27 521.193L467.116 522.304ZM467.991 521.457C468.395 521.213 468.766 521.104 469.114 521.089L469.021 518.936C468.265 518.968 467.547 519.207 466.877 519.612L467.991 521.457ZM469.114 521.089C469.487 521.073 469.809 521.145 470.103 521.297L471.094 519.384C470.45 519.05 469.752 518.904 469.021 518.936L469.114 521.089ZM470.103 521.297C470.387 521.444 470.619 521.66 470.806 521.969L472.651 520.855C472.268 520.221 471.747 519.722 471.094 519.384L470.103 521.297ZM470.806 521.969C470.94 522.192 471.033 522.435 471.082 522.706L473.202 522.319C473.107 521.797 472.923 521.307 472.651 520.855L470.806 521.969ZM471.083 522.712C471.131 522.965 471.144 523.336 471.09 523.849L473.233 524.075C473.3 523.439 473.301 522.843 473.201 522.314L471.083 522.712ZM471.09 523.85C471.036 524.368 470.922 525.054 470.741 525.917L472.85 526.359C473.039 525.459 473.169 524.694 473.233 524.073L471.09 523.85ZM470.741 525.915L470.012 529.363L472.12 529.809L472.85 526.361L470.741 525.915ZM470.144 530.143L470.187 530.214L472.032 529.1L471.989 529.029L470.144 530.143ZM471.667 530.58L475.93 528.005L474.816 526.16L470.553 528.735L471.667 530.58ZM474.45 527.64L475.045 528.625L476.89 527.511L476.295 526.526L474.45 527.64ZM475.411 527.145L469.625 530.64L470.739 532.484L476.525 528.99L475.411 527.145Z" fill="black"/>
<path d="M481.539 525.349C480.907 525.634 480.295 525.779 479.702 525.785C479.113 525.79 478.586 525.664 478.121 525.409C477.658 525.149 477.298 524.768 477.041 524.266L478.247 523.722C478.415 524.026 478.647 524.25 478.942 524.394C479.236 524.534 479.566 524.596 479.931 524.581C480.297 524.566 480.668 524.474 481.045 524.304C481.466 524.114 481.806 523.872 482.066 523.579C482.325 523.285 482.488 522.966 482.556 522.62C482.623 522.275 482.579 521.93 482.423 521.585C482.261 521.225 482.028 520.948 481.725 520.754C481.422 520.557 481.062 520.457 480.647 520.456C480.231 520.456 479.775 520.567 479.277 520.792L478.492 521.146L478.017 520.092L478.802 519.738C479.191 519.563 479.501 519.339 479.732 519.066C479.965 518.792 480.107 518.489 480.158 518.159C480.212 517.828 480.162 517.489 480.006 517.145C479.856 516.813 479.653 516.557 479.395 516.377C479.138 516.198 478.844 516.1 478.514 516.083C478.187 516.066 477.843 516.138 477.483 516.301C477.144 516.453 476.853 516.659 476.609 516.919C476.367 517.174 476.204 517.461 476.121 517.779C476.036 518.093 476.059 518.417 476.19 518.75L475.041 519.268C474.829 518.745 474.78 518.226 474.897 517.708C475.012 517.188 475.255 516.714 475.626 516.285C476.001 515.855 476.47 515.513 477.035 515.258C477.642 514.984 478.218 514.873 478.762 514.923C479.306 514.97 479.784 515.14 480.197 515.434C480.61 515.728 480.921 516.106 481.129 516.569C481.378 517.121 481.445 517.658 481.33 518.178C481.219 518.697 480.949 519.143 480.522 519.516L480.557 519.593C481.222 519.416 481.824 519.461 482.364 519.728C482.901 519.993 483.311 520.436 483.591 521.059C483.832 521.592 483.902 522.136 483.803 522.692C483.706 523.242 483.463 523.751 483.074 524.218C482.686 524.686 482.174 525.062 481.539 525.349Z" fill="black"/>
<path d="M509.673 672.567C509.711 673.102 509.946 673.527 510.38 673.842C510.814 674.157 511.356 674.33 512.006 674.361C512.482 674.383 512.902 674.326 513.266 674.189C513.626 674.052 513.913 673.854 514.125 673.594C514.333 673.334 514.446 673.033 514.462 672.69C514.476 672.403 514.419 672.153 514.293 671.941C514.163 671.731 513.992 671.553 513.782 671.406C513.571 671.263 513.349 671.142 513.116 671.043C512.882 670.948 512.666 670.869 512.47 670.808L511.392 670.462C511.116 670.375 510.81 670.259 510.473 670.113C510.133 669.967 509.811 669.775 509.507 669.536C509.199 669.301 508.95 669.005 508.76 668.649C508.57 668.293 508.487 667.863 508.511 667.36C508.539 666.779 508.716 666.262 509.043 665.807C509.366 665.353 509.824 665.002 510.418 664.753C511.008 664.504 511.716 664.399 512.541 664.438C513.31 664.475 513.971 664.631 514.522 664.906C515.07 665.181 515.494 665.548 515.795 666.007C516.092 666.467 516.247 666.991 516.261 667.581L514.918 667.517C514.903 667.11 514.782 666.767 514.557 666.49C514.328 666.216 514.033 666.006 513.672 665.859C513.308 665.716 512.912 665.634 512.485 665.614C511.989 665.59 511.539 665.649 511.136 665.791C510.733 665.937 510.409 666.149 510.164 666.429C509.92 666.711 509.788 667.049 509.769 667.44C509.752 667.797 509.838 668.092 510.027 668.325C510.216 668.559 510.469 668.753 510.788 668.908C511.107 669.064 511.452 669.203 511.825 669.326L513.129 669.766C513.957 670.048 514.605 670.424 515.073 670.895C515.542 671.365 515.759 671.963 515.724 672.687C515.696 673.288 515.508 673.805 515.162 674.237C514.811 674.673 514.354 675.002 513.79 675.224C513.222 675.449 512.595 675.546 511.909 675.513C511.217 675.48 510.607 675.327 510.081 675.053C509.554 674.782 509.143 674.426 508.848 673.985C508.55 673.543 508.406 673.05 508.414 672.508L509.673 672.567Z" fill="black"/>
<path d="M451.485 634.983L452.394 634.269L455.301 637.969L454.393 638.683L451.485 634.983Z" fill="black"/>
<path d="M482.699 655.505C483.402 655.837 483.935 656.279 484.298 656.83C484.656 657.383 484.841 658.004 484.851 658.695C484.857 659.387 484.683 660.106 484.33 660.853C483.977 661.6 483.53 662.195 482.988 662.636C482.442 663.078 481.848 663.344 481.206 663.431C480.56 663.521 479.907 663.41 479.249 663.099C478.869 662.919 478.524 662.678 478.213 662.377C477.903 662.075 477.663 661.71 477.494 661.281C477.323 660.856 477.258 660.368 477.297 659.817C477.337 659.267 477.517 658.651 477.839 657.971L478.064 657.496L483.685 660.153L483.227 661.122L478.745 659.003C478.551 659.415 478.459 659.821 478.471 660.221C478.48 660.621 478.591 660.985 478.803 661.314C479.012 661.641 479.32 661.901 479.725 662.092C480.171 662.303 480.61 662.375 481.04 662.307C481.467 662.242 481.85 662.074 482.19 661.805C482.53 661.536 482.795 661.201 482.985 660.799L483.291 660.153C483.551 659.602 483.677 659.09 483.668 658.617C483.654 658.146 483.524 657.73 483.276 657.369C483.027 657.011 482.676 656.725 482.224 656.511C481.929 656.372 481.644 656.288 481.368 656.258C481.087 656.23 480.819 656.258 480.566 656.344C480.311 656.432 480.076 656.581 479.862 656.789L478.923 655.973C479.21 655.66 479.554 655.428 479.955 655.276C480.354 655.128 480.788 655.07 481.257 655.102C481.725 655.137 482.206 655.271 482.699 655.505Z" fill="black"/>
<path d="M507.475 661.377C507.682 661.413 507.863 661.463 508.019 661.527C508.176 661.586 508.282 661.637 508.339 661.679L507.838 662.7C507.555 662.571 507.298 662.497 507.067 662.478C506.835 662.458 506.616 662.524 506.407 662.675C506.196 662.823 505.981 663.085 505.761 663.462L505.423 664.042L506.944 672.548L505.62 672.313L504.551 665.594L504.468 665.58L501.152 671.52L499.828 671.285L504.815 662.782C505.039 662.399 505.288 662.093 505.559 661.864C505.832 661.631 506.128 661.475 506.448 661.397C506.764 661.318 507.106 661.311 507.475 661.377Z" fill="black"/>
<path d="M495.035 666.688L496.194 666.686C496.211 666.884 496.262 667.086 496.346 667.292C496.426 667.5 496.561 667.691 496.753 667.865C496.944 668.04 497.214 668.176 497.562 668.273C498.038 668.407 498.465 668.409 498.844 668.279C499.219 668.151 499.454 667.92 499.548 667.586C499.631 667.289 499.589 667.024 499.421 666.791C499.254 666.558 498.956 666.319 498.53 666.075L497.455 665.467C496.807 665.103 496.361 664.699 496.118 664.255C495.874 663.815 495.828 663.323 495.981 662.779C496.106 662.334 496.346 661.971 496.702 661.692C497.054 661.412 497.486 661.235 497.999 661.161C498.512 661.086 499.07 661.134 499.675 661.304C500.468 661.527 501.076 661.884 501.499 662.375C501.922 662.865 502.11 663.461 502.062 664.162L500.848 664.126C500.858 663.677 500.742 663.306 500.5 663.012C500.255 662.717 499.888 662.501 499.399 662.363C498.841 662.207 498.366 662.2 497.972 662.345C497.574 662.491 497.328 662.732 497.234 663.066C497.158 663.336 497.189 663.589 497.326 663.824C497.463 664.063 497.715 664.283 498.081 664.485L499.292 665.153C499.957 665.522 500.406 665.931 500.641 666.379C500.871 666.83 500.911 667.324 500.76 667.861C500.636 668.3 500.404 668.654 500.063 668.922C499.718 669.189 499.304 669.359 498.821 669.431C498.335 669.502 497.818 669.46 497.271 669.306C496.501 669.09 495.945 668.751 495.601 668.29C495.253 667.828 495.065 667.294 495.035 666.688Z" fill="black"/>
<path d="M491.055 659.988L494.175 661.119L490.512 671.232L487.253 670.051C486.272 669.696 485.506 669.189 484.955 668.532C484.403 667.877 484.077 667.106 483.978 666.217C483.878 665.332 484.017 664.366 484.397 663.319C484.778 662.266 485.294 661.427 485.945 660.802C486.595 660.181 487.352 659.796 488.218 659.648C489.082 659.503 490.028 659.616 491.055 659.988ZM492.557 661.762L490.74 661.103C489.904 660.801 489.153 660.711 488.486 660.834C487.819 660.958 487.243 661.269 486.757 661.767C486.272 662.265 485.88 662.925 485.582 663.748C485.286 664.565 485.165 665.316 485.218 666.002C485.27 666.691 485.504 667.289 485.919 667.797C486.334 668.309 486.936 668.707 487.726 668.994L489.681 669.702L492.557 661.762Z" fill="black"/>
<path d="M470.259 657.573L476.981 652.208L478.06 652.859L476.446 661.307L475.295 660.612L476.71 653.958L476.638 653.914L471.41 658.267L470.259 657.573Z" fill="black"/>
<path d="M468.074 655.667L467.474 656.397C467.292 656.619 467.059 656.822 466.776 657.007C466.489 657.192 466.173 657.338 465.831 657.447C465.483 657.556 465.13 657.608 464.771 657.603L464.599 656.754C464.969 656.651 465.327 656.519 465.672 656.358C466.012 656.198 466.305 655.967 466.552 655.667L467.165 654.92L468.074 655.667Z" fill="black"/>
<path d="M470.19 648.476L469.518 649.144L464.246 649.369C463.628 649.394 463.104 649.43 462.675 649.476C462.243 649.525 461.875 649.608 461.572 649.727C461.264 649.845 460.993 650.02 460.759 650.253C460.491 650.52 460.322 650.816 460.254 651.141C460.184 651.464 460.206 651.789 460.319 652.117C460.432 652.445 460.626 652.747 460.901 653.023C461.193 653.317 461.509 653.512 461.849 653.61C462.183 653.708 462.518 653.708 462.854 653.613C463.186 653.514 463.498 653.32 463.79 653.031L464.666 653.911C464.218 654.357 463.722 654.645 463.178 654.775C462.634 654.905 462.091 654.886 461.548 654.718C461.002 654.548 460.508 654.24 460.065 653.795C459.619 653.347 459.319 652.856 459.164 652.322C459.009 651.788 458.995 651.263 459.12 650.748C459.246 650.232 459.505 649.778 459.898 649.387C460.179 649.107 460.505 648.885 460.875 648.72C461.24 648.554 461.711 648.433 462.287 648.355C462.858 648.277 463.596 648.223 464.502 648.193L468.046 648.083L468.106 648.024L464.572 644.471L465.393 643.654L470.19 648.476Z" fill="black"/>
<path d="M463.805 642.195L463.09 642.817L457.816 642.688C457.198 642.672 456.673 642.673 456.241 642.69C455.807 642.709 455.435 642.768 455.125 642.866C454.809 642.963 454.527 643.12 454.278 643.337C453.992 643.585 453.805 643.87 453.715 644.189C453.624 644.506 453.623 644.832 453.714 645.167C453.805 645.501 453.979 645.816 454.234 646.11C454.506 646.422 454.808 646.638 455.141 646.758C455.468 646.878 455.802 646.902 456.143 646.828C456.482 646.752 456.806 646.58 457.116 646.31L457.931 647.248C457.454 647.662 456.94 647.916 456.389 648.01C455.838 648.103 455.297 648.048 454.766 647.844C454.234 647.638 453.761 647.298 453.349 646.824C452.934 646.347 452.668 645.837 452.549 645.294C452.43 644.751 452.45 644.227 452.61 643.72C452.77 643.214 453.059 642.779 453.477 642.415C453.776 642.155 454.116 641.955 454.496 641.815C454.872 641.674 455.349 641.584 455.929 641.545C456.504 641.506 457.244 641.501 458.15 641.532L461.693 641.66L461.757 641.604L458.468 637.823L459.342 637.063L463.805 642.195Z" fill="black"/>
<path d="M448.976 635.091L448.156 635.562C447.907 635.705 447.617 635.812 447.287 635.885C446.953 635.956 446.606 635.981 446.247 635.961C445.884 635.94 445.535 635.864 445.201 635.732L445.34 634.877C445.723 634.912 446.105 634.915 446.484 634.887C446.859 634.857 447.215 634.746 447.552 634.552L448.39 634.071L448.976 635.091Z" fill="black"/>
<path d="M454.367 629.15L453.498 629.512L448.566 627.733C447.988 627.524 447.492 627.36 447.08 627.24C446.665 627.122 446.295 627.06 445.972 627.055C445.644 627.048 445.329 627.107 445.026 627.233C444.679 627.378 444.412 627.587 444.227 627.86C444.041 628.13 443.939 628.437 443.919 628.781C443.9 629.125 443.965 629.476 444.113 629.834C444.271 630.214 444.488 630.513 444.764 630.73C445.035 630.946 445.343 631.073 445.687 631.111C446.03 631.146 446.39 631.085 446.767 630.929L447.241 632.068C446.661 632.31 446.097 632.387 445.548 632.302C444.999 632.217 444.506 631.995 444.07 631.636C443.632 631.274 443.294 630.805 443.054 630.229C442.813 629.649 442.722 629.085 442.78 628.535C442.839 627.986 443.023 627.498 443.333 627.071C443.642 626.643 444.052 626.324 444.56 626.112C444.924 625.961 445.308 625.879 445.71 625.867C446.108 625.852 446.587 625.918 447.146 626.063C447.7 626.206 448.4 626.435 449.244 626.748L452.544 627.982L452.622 627.95L450.71 623.352L451.772 622.91L454.367 629.15Z" fill="black"/>
<path d="M454.367 629.15L454.781 630.145L455.776 629.732L455.362 628.737L454.367 629.15ZM453.498 629.512L453.132 630.526L453.526 630.667L453.912 630.507L453.498 629.512ZM448.566 627.733L448.199 628.746L448.2 628.747L448.566 627.733ZM447.08 627.24L447.38 626.205L447.375 626.204L447.08 627.24ZM445.972 627.055L445.948 628.132L445.954 628.132L445.972 627.055ZM444.227 627.86L445.115 628.471L445.12 628.463L444.227 627.86ZM443.919 628.781L442.844 628.721L442.844 628.721L443.919 628.781ZM444.764 630.73L445.435 629.887L445.432 629.885L444.764 630.73ZM445.687 631.111L445.569 632.182L445.578 632.183L445.687 631.111ZM446.767 630.929L447.762 630.515L447.348 629.52L446.353 629.934L446.767 630.929ZM447.241 632.068L447.655 633.063L448.65 632.65L448.236 631.655L447.241 632.068ZM445.548 632.302L445.713 631.238L445.713 631.238L445.548 632.302ZM444.07 631.636L443.383 632.467L443.385 632.469L444.07 631.636ZM442.78 628.535L441.709 628.421L441.709 628.421L442.78 628.535ZM443.333 627.071L444.205 627.703L443.333 627.071ZM445.71 625.867L445.744 626.944L445.749 626.943L445.71 625.867ZM447.146 626.063L446.875 627.106L446.876 627.106L447.146 626.063ZM449.244 626.748L449.621 625.739L449.619 625.738L449.244 626.748ZM452.544 627.982L452.167 628.991L452.566 629.14L452.958 628.977L452.544 627.982ZM452.622 627.95L453.035 628.945L454.03 628.531L453.617 627.536L452.622 627.95ZM450.71 623.352L450.296 622.357L449.301 622.77L449.715 623.765L450.71 623.352ZM451.772 622.91L452.767 622.496L452.353 621.501L451.359 621.915L451.772 622.91ZM453.954 628.156L453.084 628.517L453.912 630.507L454.781 630.145L453.954 628.156ZM453.863 628.498L448.931 626.719L448.2 628.747L453.132 630.526L453.863 628.498ZM448.932 626.72C448.341 626.506 447.822 626.333 447.38 626.205L446.78 628.275C447.163 628.386 447.634 628.542 448.199 628.746L448.932 626.72ZM447.375 626.204C446.897 626.068 446.432 625.985 445.99 625.978L445.954 628.132C446.159 628.136 446.432 628.176 446.786 628.277L447.375 626.204ZM445.996 625.978C445.518 625.967 445.054 626.055 444.613 626.238L445.44 628.228C445.604 628.16 445.771 628.128 445.948 628.132L445.996 625.978ZM444.613 626.238C444.099 626.452 443.654 626.785 443.335 627.256L445.12 628.463C445.171 628.389 445.258 628.304 445.44 628.228L444.613 626.238ZM443.34 627.248C443.036 627.69 442.873 628.19 442.844 628.721L444.995 628.842C445.004 628.684 445.047 628.57 445.115 628.471L443.34 627.248ZM442.844 628.721C442.814 629.246 442.915 629.759 443.118 630.247L445.108 629.42C445.014 629.194 444.986 629.005 444.995 628.842L442.844 628.721ZM443.118 630.247C443.335 630.768 443.653 631.226 444.096 631.576L445.432 629.885C445.323 629.799 445.208 629.66 445.108 629.42L443.118 630.247ZM444.093 631.573C444.523 631.916 445.022 632.122 445.569 632.182L445.805 630.04C445.663 630.025 445.547 629.977 445.435 629.887L444.093 631.573ZM445.578 632.183C446.129 632.239 446.669 632.136 447.181 631.923L446.353 629.934C446.111 630.034 445.931 630.053 445.796 630.039L445.578 632.183ZM445.772 631.342L446.246 632.482L448.236 631.655L447.762 630.515L445.772 631.342ZM446.827 631.074C446.406 631.249 446.042 631.289 445.713 631.238L445.383 633.367C446.152 633.486 446.916 633.37 447.655 633.063L446.827 631.074ZM445.713 631.238C445.358 631.182 445.044 631.042 444.754 630.804L443.385 632.469C443.968 632.948 444.64 633.252 445.383 633.367L445.713 631.238ZM444.757 630.806C444.467 630.567 444.228 630.246 444.049 629.815L442.059 630.643C442.359 631.364 442.797 631.982 443.383 632.467L444.757 630.806ZM444.049 629.815C443.868 629.379 443.815 628.996 443.852 628.65L441.709 628.421C441.629 629.173 441.758 629.919 442.059 630.643L444.049 629.815ZM443.852 628.65C443.891 628.278 444.011 627.97 444.205 627.703L442.46 626.438C442.035 627.025 441.786 627.694 441.709 628.421L443.852 628.65ZM444.205 627.703C444.393 627.444 444.64 627.246 444.974 627.107L444.147 625.118C443.463 625.402 442.892 625.843 442.46 626.438L444.205 627.703ZM444.974 627.107C445.215 627.007 445.469 626.952 445.744 626.944L445.677 624.79C445.146 624.806 444.634 624.915 444.147 625.118L444.974 627.107ZM445.749 626.943C446.008 626.934 446.376 626.976 446.875 627.106L447.417 625.02C446.798 624.859 446.209 624.77 445.671 624.79L445.749 626.943ZM446.876 627.106C447.381 627.236 448.042 627.451 448.869 627.758L449.619 625.738C448.757 625.418 448.02 625.176 447.416 625.02L446.876 627.106ZM448.867 627.758L452.167 628.991L452.922 626.973L449.621 625.739L448.867 627.758ZM452.958 628.977L453.035 628.945L452.208 626.955L452.131 626.987L452.958 628.977ZM453.617 627.536L451.704 622.938L449.715 623.765L451.627 628.364L453.617 627.536ZM451.123 624.346L452.186 623.905L451.359 621.915L450.296 622.357L451.123 624.346ZM450.777 623.323L453.372 629.564L455.362 628.737L452.767 622.496L450.777 623.323Z" fill="black"/>
<path d="M449.916 616.998C450.103 617.666 450.156 618.293 450.074 618.88C449.991 619.463 449.789 619.966 449.467 620.387C449.141 620.806 448.711 621.106 448.176 621.285L447.817 620.011C448.143 619.89 448.399 619.695 448.585 619.424C448.767 619.155 448.878 618.838 448.918 618.474C448.957 618.11 448.921 617.729 448.809 617.332C448.684 616.887 448.495 616.514 448.244 616.214C447.992 615.914 447.7 615.705 447.369 615.587C447.037 615.47 446.69 615.462 446.326 615.564C445.945 615.672 445.636 615.86 445.399 616.131C445.159 616.402 445.008 616.743 444.945 617.153C444.882 617.564 444.925 618.032 445.073 618.558L445.306 619.387L444.194 619.7L443.961 618.871C443.845 618.459 443.67 618.12 443.434 617.851C443.197 617.58 442.92 617.394 442.601 617.295C442.281 617.192 441.939 617.192 441.575 617.294C441.224 617.393 440.941 617.556 440.725 617.784C440.509 618.012 440.369 618.288 440.304 618.612C440.237 618.933 440.258 619.284 440.365 619.664C440.466 620.022 440.626 620.34 440.847 620.62C441.063 620.897 441.322 621.101 441.624 621.23C441.923 621.361 442.246 621.386 442.595 621.306L442.936 622.52C442.388 622.652 441.867 622.623 441.373 622.431C440.875 622.24 440.442 621.929 440.074 621.498C439.704 621.063 439.435 620.548 439.267 619.951C439.087 619.311 439.062 618.725 439.193 618.194C439.32 617.663 439.56 617.216 439.912 616.851C440.264 616.487 440.684 616.236 441.173 616.098C441.756 615.934 442.296 615.947 442.794 616.138C443.29 616.326 443.691 616.659 443.997 617.137L444.077 617.114C444.001 616.43 444.136 615.841 444.481 615.347C444.822 614.855 445.321 614.516 445.979 614.331C446.541 614.172 447.09 614.184 447.625 614.364C448.155 614.542 448.622 614.858 449.026 615.312C449.43 615.765 449.727 616.328 449.916 616.998Z" fill="black"/>
<path d="M608.354 582.768C608.414 583.415 608.462 584.032 608.5 584.67L589.073 609.345L551.078 657.598L531.642 682.294L529.186 682.693C527.042 677.266 525.428 671.645 524.365 665.908C522.798 657.894 522.471 649.688 523.397 641.575C524.629 630.918 528.72 620.793 535.234 612.27C541.943 603.599 550.586 596.617 560.474 591.881C570.133 587.345 580.489 584.474 591.106 583.393C596.828 582.706 602.597 582.497 608.354 582.768Z" fill="white" stroke="black" stroke-width="2.46488" stroke-miterlimit="10"/>
</svg>
